<?xml version="1.0" standalone="no"?>
<!DOCTYPE svg PUBLIC "-//W3C//DTD SVG 20010904//EN"
 "http://www.w3.org/TR/2001/REC-SVG-20010904/DTD/svg10.dtd">
<svg version="1.0" xmlns="http://www.w3.org/2000/svg"
 width="512.000000pt" height="512.000000pt" viewBox="0 0 512.000000 512.000000"
 preserveAspectRatio="xMidYMid meet">
<metadata>
Created by potrace 1.14, written by Peter Selinger 2001-2017
</metadata>
<g transform="translate(0.000000,512.000000) scale(0.100000,-0.100000)"
fill="#000000" stroke="none">
<path d="M0 2560 l0 -2560 2196 0 c1753 0 2194 3 2188 13 -6 9 -4 9 7 -1 10
-9 98 -12 371 -12 l358 0 0 2560 0 2560 -2560 0 -2560 0 0 -2560z m2510 2265
c7 -9 8 -15 2 -15 -5 0 -12 7 -16 15 -3 8 -4 15 -2 15 2 0 9 -7 16 -15z m2285
-140 l30 -25 -27 11 c-16 7 -28 16 -28 21 0 14 -28 9 -33 -6 -8 -21 12 -34 58
-38 32 -2 41 -7 43 -24 4 -30 -24 -48 -70 -47 -41 2 -68 17 -68 37 0 7 4 6 9
-2 12 -19 87 -28 106 -12 23 19 18 30 -15 30 -63 0 -99 37 -68 68 17 17 29 15
63 -13z m-78 -381 c-3 -3 -12 -4 -19 -1 -8 3 -5 6 6 6 11 1 17 -2 13 -5z m83
-95 c0 -41 -15 -36 -16 6 0 18 3 32 8 29 4 -3 8 -18 8 -35z m-2968 6 c3 -14 1
-25 -3 -25 -5 0 -9 11 -9 25 0 14 2 25 4 25 2 0 6 -11 8 -25z m-103 -29 c-9
-8 -10 -7 -5 7 3 10 7 24 7 30 1 7 3 4 6 -7 3 -10 -1 -23 -8 -30z m61 17 c0
-20 -3 -24 -11 -16 -7 7 -9 19 -6 27 10 24 17 19 17 -11z m955 -2 c35 -20 42
-48 20 -76 -16 -20 -16 -20 -6 2 17 34 13 49 -14 61 -39 18 -45 15 -45 -22 0
-24 5 -36 18 -39 13 -4 11 -5 -5 -6 -21 -1 -23 4 -23 45 0 38 -3 45 -17 42
-19 -3 -32 -58 -15 -58 6 0 12 -7 16 -15 4 -13 2 -14 -14 -5 -25 14 -35 52
-20 80 9 17 17 20 43 15 18 -4 46 -15 62 -24z m-1045 4 c0 -8 -2 -15 -4 -15
-2 0 -6 7 -10 15 -3 8 -1 15 4 15 6 0 10 -7 10 -15z m2537 -102 c-3 -10 -5 -4
-5 12 0 17 2 24 5 18 2 -7 2 -21 0 -30z m48 17 c3 -5 -1 -10 -9 -10 -8 0 -18
5 -21 10 -3 6 1 10 9 10 8 0 18 -4 21 -10z m-1578 -26 c-3 -3 -12 -4 -19 -1
-8 3 -5 6 6 6 11 1 17 -2 13 -5z m2210 -46 c-3 -7 -5 -2 -5 12 0 14 2 19 5 13
2 -7 2 -19 0 -25z m47 17 c3 -8 1 -15 -4 -15 -6 0 -10 7 -10 15 0 8 2 15 4 15
2 0 6 -7 10 -15z m-664 -5 c-20 -13 -70 -13 -70 0 0 6 19 10 43 10 31 0 38 -3
27 -10z m697 -12 c-3 -8 -6 -5 -6 6 -1 11 2 17 5 13 3 -3 4 -12 1 -19z m-4850
-10 c-3 -8 -6 -5 -6 6 -1 11 2 17 5 13 3 -3 4 -12 1 -19z m70 0 c-3 -8 -6 -5
-6 6 -1 11 2 17 5 13 3 -3 4 -12 1 -19z m2960 -30 c-2 -13 -4 -5 -4 17 -1 22
1 32 4 23 2 -10 2 -28 0 -40z m1383 -29 c0 -4 -7 -6 -16 -2 -12 4 -15 2 -12
-8 3 -8 11 -13 17 -11 6 1 11 -2 11 -8 0 -15 -26 -12 -40 5 -10 12 -10 18 0
29 12 15 40 11 40 -5z m-90 -32 c0 -4 -4 -5 -10 -2 -5 3 -10 14 -10 23 0 15
-2 15 -10 2 -5 -8 -10 -10 -10 -4 0 21 15 25 27 8 7 -10 13 -22 13 -27z m117
11 c-3 -7 -5 -2 -5 12 0 14 2 19 5 13 2 -7 2 -19 0 -25z m100 0 c-3 -7 -5 -2
-5 12 0 14 2 19 5 13 2 -7 2 -19 0 -25z m130 0 c-3 -7 -5 -2 -5 12 0 14 2 19
5 13 2 -7 2 -19 0 -25z m97 16 c19 -18 12 -34 -14 -34 -22 0 -34 15 -26 35 7
19 21 19 40 -1z m50 -33 c-9 -11 -21 13 -16 32 6 22 6 22 12 -3 4 -14 6 -27 4
-29z m37 30 c-6 -10 -7 -21 -4 -25 3 -3 2 -6 -4 -6 -13 0 -25 28 -17 41 3 5
12 9 20 9 11 0 12 -4 5 -19z m-4832 -30 c-7 -2 -15 1 -17 8 -2 6 -8 9 -13 5
-10 -6 -12 9 -2 19 3 4 15 -1 25 -10 14 -13 16 -19 7 -22z m38 17 c-3 -8 -6
-5 -6 6 -1 11 2 17 5 13 3 -3 4 -12 1 -19z m3088 -10 c6 -4 2 -8 -7 -8 -10 0
-18 7 -18 17 0 9 3 12 8 7 4 -5 12 -12 17 -16z m1332 0 c-3 -8 -6 -5 -6 6 -1
11 2 17 5 13 3 -3 4 -12 1 -19z m-4372 2 c-3 -5 -14 -10 -23 -10 -15 0 -15 2
-2 10 20 13 33 13 25 0z m1585 0 c0 -5 -5 -10 -11 -10 -5 0 -7 5 -4 10 3 6 8
10 11 10 2 0 4 -4 4 -10z m2647 -12 c-3 -8 -6 -5 -6 6 -1 11 2 17 5 13 3 -3 4
-12 1 -19z m544 -21 c-6 -6 -11 -19 -11 -29 0 -10 -7 -18 -16 -18 -17 0 -17 1
11 47 11 18 22 28 24 22 2 -6 -2 -16 -8 -22z m-2711 -37 c0 -33 -3 -60 -7 -60
-5 0 -6 27 -5 60 5 77 12 77 12 0z m483 53 c-13 -2 -35 -2 -50 0 -16 2 -5 4
22 4 28 0 40 -2 28 -4z m694 -65 c-2 -13 -4 -3 -4 22 0 25 2 35 4 23 2 -13 2
-33 0 -45z m-1214 35 c-7 -2 -19 -2 -25 0 -7 3 -2 5 12 5 14 0 19 -2 13 -5z
m-686 -50 c-3 -10 -5 -4 -5 12 0 17 2 24 5 18 2 -7 2 -21 0 -30z m941 30 c-21
-2 -55 -2 -75 0 -21 2 -4 4 37 4 41 0 58 -2 38 -4z m279 -15 c-3 -8 -6 -5 -6
6 -1 11 2 17 5 13 3 -3 4 -12 1 -19z m2170 -90 c-3 -7 -5 -2 -5 12 0 14 2 19
5 13 2 -7 2 -19 0 -25z m-2746 -76 c-7 -2 -18 1 -23 6 -8 8 -4 9 13 5 13 -4
18 -8 10 -11z m635 -7 c4 -14 4 -29 0 -32 -3 -4 -6 3 -6 14 0 22 -31 32 -77
25 -21 -3 -23 -9 -23 -62 0 -37 5 -60 13 -63 7 -4 6 -6 -5 -6 -13 -1 -17 11
-20 70 -2 39 -1 73 1 75 2 2 28 4 57 4 49 0 54 -2 60 -25z m-579 -1 c-3 -3
-12 -4 -19 -1 -8 3 -5 6 6 6 11 1 17 -2 13 -5z m32 -97 c-1 -94 -6 -85 -11 20
-2 39 0 69 4 67 4 -3 7 -42 7 -87z m2641 83 c0 -5 -2 -10 -4 -10 -3 0 -8 5
-11 10 -3 6 -1 10 4 10 6 0 11 -4 11 -10z m-2706 -33 c16 3 26 1 26 -6 0 -6
-16 -11 -35 -11 -32 0 -35 -2 -35 -29 0 -27 4 -30 38 -34 l37 -4 -42 -1 -43
-2 0 56 c0 48 2 54 14 41 9 -8 26 -12 40 -10z m574 -14 c-10 -2 -28 -2 -40 0
-13 2 -5 4 17 4 22 1 32 -1 23 -4z m-1883 -13 c3 -5 1 -10 -4 -10 -6 0 -11 5
-11 10 0 6 2 10 4 10 3 0 8 -4 11 -10z m430 -30 c8 -24 -1 -40 -21 -40 -8 0
-12 5 -9 10 3 6 1 10 -4 10 -6 0 -11 -5 -11 -11 0 -5 -4 -7 -10 -4 -17 10 -11
25 10 25 11 0 19 3 19 8 -5 28 17 30 26 2z m95 10 c0 -5 -10 -10 -22 -9 -22 0
-22 1 -3 9 11 5 21 9 23 9 1 1 2 -3 2 -9z m87 -19 c17 -23 16 -33 -4 -29 -10
2 -17 11 -17 21 1 12 -6 17 -22 17 -13 0 -24 5 -24 10 0 15 53 0 67 -19z m133
20 c0 -6 -5 -13 -11 -17 -6 -3 -8 -16 -5 -28 5 -21 5 -21 -10 -1 -12 17 -16
18 -24 5 -12 -20 -23 -6 -15 20 4 13 12 19 21 16 7 -3 16 -1 19 4 8 13 25 13
25 1z m64 -2 c-6 -10 -44 -7 -44 3 0 4 11 7 24 6 14 -1 23 -6 20 -9z m1116 -9
c0 -14 -6 -20 -22 -19 -17 1 -19 2 -5 6 9 2 17 11 17 19 0 8 2 14 5 14 3 0 5
-9 5 -20z m525 2 c3 -8 1 -21 -5 -30 -8 -15 -9 -15 -10 3 -1 20 -1 20 -15 1
-17 -22 -20 -21 -28 15 -6 24 -4 26 23 25 16 -1 32 -7 35 -14z m53 -17 c0 -30
-6 -31 -24 -7 -18 24 -17 32 5 32 13 0 19 -7 19 -25z m122 1 c0 -14 -5 -28
-10 -31 -6 -4 -10 5 -8 24 3 37 18 42 18 7z m40 16 c0 -13 -12 -22 -22 -16
-10 6 -1 24 13 24 5 0 9 -4 9 -8z m50 -22 c0 -11 -5 -22 -11 -26 -16 -10 -29
9 -23 33 7 26 34 20 34 -7z m60 9 c0 -5 5 -9 10 -9 6 0 10 7 10 15 0 8 6 12
14 9 11 -4 11 -10 2 -29 -8 -18 -14 -21 -24 -12 -10 8 -16 7 -23 -4 -7 -11 -9
-10 -10 6 l0 20 -9 -20 c-10 -23 -12 -10 -4 22 6 21 34 22 34 2z m-3122 -2
c23 5 24 4 11 -9 -8 -10 -20 -13 -29 -8 -8 4 -21 5 -29 2 -12 -4 -12 -3 0 11
8 8 15 11 17 6 2 -5 15 -6 30 -2z m2942 -7 c0 -11 -4 -20 -9 -20 -5 0 -7 9 -4
20 3 11 7 20 9 20 2 0 4 -9 4 -20z m1550 10 c0 -5 -2 -10 -4 -10 -3 0 -8 5
-11 10 -3 6 -1 10 4 10 6 0 11 -4 11 -10z m-3795 -10 c3 -5 -1 -10 -10 -10 -9
0 -13 5 -10 10 3 6 8 10 10 10 2 0 7 -4 10 -10z m130 -20 c-8 -13 -32 -2 -32
15 0 10 5 11 19 4 10 -6 16 -14 13 -19z m22 8 c-3 -8 -6 -5 -6 6 -1 11 2 17 5
13 3 -3 4 -12 1 -19z m2053 0 c0 -18 -2 -20 -9 -8 -6 8 -7 18 -5 22 9 14 14 9
14 -14z m-2503 -10 c-3 -8 -6 -5 -6 6 -1 11 2 17 5 13 3 -3 4 -12 1 -19z m513
12 c0 -5 -7 -7 -15 -4 -8 4 -15 8 -15 10 0 2 7 4 15 4 8 0 15 -4 15 -10z
m2880 6 c0 -3 -4 -8 -10 -11 -5 -3 -10 -1 -10 4 0 6 5 11 10 11 6 0 10 -2 10
-4z m-3757 -36 c-8 -28 -20 -34 -17 -7 3 28 2 27 13 27 5 0 7 -9 4 -20z m1140
13 c-7 -2 -19 -2 -25 0 -7 3 -2 5 12 5 14 0 19 -2 13 -5z m3235 -9 c17 -5 15
-34 -2 -34 -8 0 -18 4 -21 10 -4 6 -13 5 -26 -3 -17 -10 -22 -9 -34 7 -8 10
-12 22 -9 27 4 7 60 3 92 -7z m-4513 -4 c-3 -5 -14 -10 -23 -9 -14 0 -13 2 3
9 27 11 27 11 20 0z m4005 0 c0 -5 -7 -10 -15 -10 -8 0 -15 5 -15 10 0 6 7 10
15 10 8 0 15 -4 15 -10z m33 -16 c-7 -20 -18 -17 -20 5 -1 13 3 18 12 15 8 -3
11 -12 8 -20z m317 -3 c0 -4 -11 -8 -25 -9 -28 -2 -31 3 -12 22 11 13 37 4 37
-13z m-3810 9 c0 -5 -5 -10 -11 -10 -5 0 -7 5 -4 10 3 6 8 10 11 10 2 0 4 -4
4 -10z m3543 -10 c-3 -11 -9 -17 -14 -14 -14 8 -10 34 5 34 9 0 12 -7 9 -20z
m47 16 c0 -3 -4 -8 -10 -11 -5 -3 -10 -1 -10 4 0 6 5 11 10 11 6 0 10 -2 10
-4z m-1762 -21 c8 -7 -97 -4 -133 5 -18 4 2 6 49 4 43 -2 81 -6 84 -9z m-581
-11 c-3 -3 -12 -4 -19 -1 -8 3 -5 6 6 6 11 1 17 -2 13 -5z m20 -76 c-2 -13 -4
-3 -4 22 0 25 2 35 4 23 2 -13 2 -33 0 -45z m-1237 48 c0 -3 -4 -8 -10 -11 -5
-3 -10 -1 -10 4 0 6 5 11 10 11 6 0 10 -2 10 -4z m2756 -69 c33 -34 77 -85 99
-112 22 -28 92 -111 155 -185 63 -74 135 -160 159 -190 40 -49 96 -114 246
-287 39 -45 44 -54 36 -76 -6 -14 -18 -28 -28 -31 -10 -3 -92 -12 -183 -21
-189 -17 -212 -20 -334 -42 l-88 -17 -25 -55 c-14 -31 -30 -64 -34 -73 -5 -10
-9 -27 -9 -39 0 -18 -3 -19 -14 -9 -12 9 -15 8 -16 -7 0 -10 -4 -146 -8 -302
-5 -196 -10 -286 -18 -288 -26 -9 -544 363 -649 465 -29 28 -123 92 -220 151
-93 55 -189 115 -212 133 -37 27 -94 42 -107 27 -5 -6 -17 -249 -25 -526 -5
-167 -11 -247 -19 -255 -12 -12 -34 2 -347 218 -44 30 -127 94 -183 142 -185
156 -196 164 -243 187 -47 22 -98 54 -218 133 -35 23 -68 39 -71 35 -4 -5 -28
-57 -53 -116 -49 -113 -82 -167 -90 -145 -2 7 -8 9 -13 5 -10 -10 -10 -11 -12
-271 l-2 -180 -31 30 c-63 59 -587 644 -645 719 -48 64 -86 134 -78 148 27 45
189 250 374 472 179 216 329 400 336 413 1 1 12 -2 25 -7 29 -11 44 -25 366
-345 l252 -250 23 19 c13 11 58 53 100 94 64 62 75 77 66 90 -10 13 -10 14 2
4 11 -10 25 -2 72 38 115 100 123 110 107 121 -11 8 -10 9 4 4 13 -4 46 22
123 97 58 56 112 106 121 110 11 7 29 -6 67 -45 29 -29 108 -102 177 -161 68
-60 159 -141 203 -180 43 -40 108 -98 145 -129 l66 -57 25 27 c14 15 43 47 64
72 36 42 255 275 410 438 38 39 75 72 82 72 6 0 38 -28 70 -63z m1257 -6 c-2
-3 -15 6 -29 20 -14 13 -29 23 -32 21 -4 -2 -9 5 -11 15 -2 12 8 8 36 -17 22
-19 38 -37 36 -39z m-4538 49 c3 -5 1 -10 -4 -10 -6 0 -11 5 -11 10 0 6 2 10
4 10 3 0 8 -4 11 -10z m595 0 c0 -5 -7 -10 -16 -10 -8 0 -12 5 -9 10 3 6 10
10 16 10 5 0 9 -4 9 -10z m1117 4 c-3 -3 -12 -4 -19 -1 -8 3 -5 6 6 6 11 1 17
-2 13 -5z m2567 -19 c3 -8 1 -15 -3 -15 -5 0 -11 7 -15 15 -3 8 -1 15 3 15 5
0 11 -7 15 -15z m-3614 -5 c0 -5 -4 -10 -10 -10 -5 0 -10 5 -10 10 0 6 5 10
10 10 6 0 10 -4 10 -10z m3567 -6 c-3 -3 -12 -4 -19 -1 -8 3 -5 6 6 6 11 1 17
-2 13 -5z m-157 -64 c0 -5 -7 -7 -15 -4 -8 4 -15 8 -15 10 0 2 7 4 15 4 8 0
15 -4 15 -10z m367 -7 c10 -10 13 -14 6 -9 -7 4 -45 10 -85 12 -94 6 -101 14
-11 14 53 0 75 -4 90 -17z m-356 -180 c13 -16 12 -17 -3 -4 -17 13 -22 21 -14
21 2 0 10 -8 17 -17z m-64 -35 c-3 -8 -6 -5 -6 6 -1 11 2 17 5 13 3 -3 4 -12
1 -19z m78 3 c3 -5 2 -12 -3 -15 -5 -3 -9 1 -9 9 0 17 3 19 12 6z m-87 -48 c9
-7 11 -13 4 -13 -12 0 -42 39 -42 55 0 5 6 1 12 -10 6 -11 18 -26 26 -32z
m378 -56 c17 -48 11 -47 -14 3 -11 23 -15 39 -9 37 6 -2 16 -20 23 -40z m-691
23 c3 -5 2 -10 -4 -10 -5 0 -13 5 -16 10 -3 6 -2 10 4 10 5 0 13 -4 16 -10z
m665 -65 c18 -10 20 -14 8 -15 -20 0 -58 46 -58 69 1 9 6 3 13 -12 7 -16 23
-35 37 -42z m83 25 c13 -34 13 -40 1 -40 -8 0 -14 10 -14 22 0 12 -7 30 -17
40 -14 15 -14 18 -1 18 8 0 22 -18 31 -40z m64 -2 c-3 -7 -5 -2 -5 12 0 14 2
19 5 13 2 -7 2 -19 0 -25z m0 -70 c-3 -7 -5 -2 -5 12 0 14 2 19 5 13 2 -7 2
-19 0 -25z m-606 -110 c-3 -21 -6 -26 -9 -15 -3 17 3 47 11 47 2 0 1 -15 -2
-32z m154 1 c10 -15 -30 -46 -70 -53 -32 -6 -34 -9 -25 -32 12 -31 12 -37 1
-30 -13 8 -34 103 -26 116 8 13 112 13 120 -1z m383 -64 c9 -20 9 -33 -2 -59
-8 -19 -19 -37 -26 -41 -7 -4 -5 4 5 18 23 35 16 78 -15 94 l-25 13 26 0 c18
0 29 -8 37 -25z m-541 -37 c-2 -13 -4 -5 -4 17 -1 22 1 32 4 23 2 -10 2 -28 0
-40z m588 32 c26 -28 15 -31 -14 -3 -13 13 -20 23 -14 23 5 0 18 -9 28 -20z
m-438 -32 c-3 -8 -6 -5 -6 6 -1 11 2 17 5 13 3 -3 4 -12 1 -19z m483 -9 c0 -6
-4 -7 -10 -4 -5 3 -10 11 -10 16 0 6 5 7 10 4 6 -3 10 -11 10 -16z m-150 -19
c0 -5 -9 -10 -20 -10 -11 0 -20 5 -20 10 0 6 9 10 20 10 11 0 20 -4 20 -10z
m101 -27 c-12 -20 -14 -14 -5 12 4 9 9 14 11 11 3 -2 0 -13 -6 -23z m-456 -3
c-3 -5 -12 -10 -18 -10 -7 0 -6 4 3 10 19 12 23 12 15 0z m123 -117 c-1 -54 2
-64 25 -73 16 -6 17 -9 5 -9 -26 -1 -48 27 -48 63 0 28 6 46 16 46 1 0 2 -12
2 -27z m117 0 c-11 -3 -26 -10 -32 -15 -9 -7 -13 -7 -13 0 0 13 18 21 45 20
l20 0 -20 -5z m72 -60 c-3 -10 -5 -2 -5 17 0 19 2 27 5 18 2 -10 2 -26 0 -35z
m-97 23 c0 -3 -4 -8 -10 -11 -5 -3 -10 -1 -10 4 0 6 5 11 10 11 6 0 10 -2 10
-4z m50 -41 c-8 -10 -27 -14 -54 -13 l-41 1 43 4 c26 3 45 10 49 19 3 8 8 13
11 10 3 -3 -1 -12 -8 -21z m-383 -237 c-2 -18 -4 -6 -4 27 0 33 2 48 4 33 2
-15 2 -42 0 -60z m490 45 c-3 -10 -5 -4 -5 12 0 17 2 24 5 18 2 -7 2 -21 0
-30z m-351 2 c7 -17 -14 -75 -27 -75 -4 0 0 14 9 30 16 30 16 32 -2 45 -18 13
-18 15 -3 15 10 0 20 -7 23 -15z m311 -32 c-3 -10 -5 -2 -5 17 0 19 2 27 5 18
2 -10 2 -26 0 -35z m-377 -10 c0 -7 -4 -13 -9 -13 -10 0 -21 36 -13 45 7 7 22
-15 22 -32z m-4145 -443 c-3 -5 -12 -10 -18 -10 -7 0 -6 4 3 10 19 12 23 12
15 0z m4155 0 c0 -5 -10 -10 -22 -9 -22 0 -22 1 -3 9 11 5 21 9 23 9 1 1 2 -3
2 -9z m40 0 c0 -5 -5 -10 -11 -10 -5 0 -7 5 -4 10 3 6 8 10 11 10 2 0 4 -4 4
-10z m275 4 c13 -5 14 -8 3 -15 -20 -13 -38 -11 -38 6 0 16 9 19 35 9z m-4268
-88 c-4 -9 -13 -13 -22 -10 -20 8 -19 22 3 26 22 5 26 2 19 -16z m-377 4 c0
-5 -4 -10 -10 -10 -5 0 -10 5 -10 10 0 6 5 10 10 10 6 0 10 -4 10 -10z m90 1
c0 -5 -9 -11 -20 -14 -13 -3 -20 0 -20 9 0 8 9 14 20 14 11 0 20 -4 20 -9z
m90 -6 c-7 -8 -17 -15 -22 -15 -11 0 14 29 26 30 5 0 3 -7 -4 -15z m235 5 c3
-5 1 -10 -4 -10 -6 0 -11 5 -11 10 0 6 2 10 4 10 3 0 8 -4 11 -10z m3916 -17
c-12 -20 -14 -14 -5 12 4 9 9 14 11 11 3 -2 0 -13 -6 -23z m289 18 c0 -5 -6
-14 -14 -20 -11 -9 -15 -7 -19 9 -4 15 0 20 14 20 10 0 19 -4 19 -9z m27 -23
c-3 -7 -5 -2 -5 12 0 14 2 19 5 13 2 -7 2 -19 0 -25z m53 16 c0 -8 -4 -12 -10
-9 -5 3 -10 10 -10 16 0 5 5 9 10 9 6 0 10 -7 10 -16z m-396 -9 c3 -8 1 -15
-3 -15 -5 0 -11 7 -15 15 -3 8 -1 15 3 15 5 0 11 -7 15 -15z m76 -16 c0 -6 -4
-7 -10 -4 -5 3 -10 11 -10 16 0 6 5 7 10 4 6 -3 10 -11 10 -16z m-1723 -51
c-3 -8 -6 -5 -6 6 -1 11 2 17 5 13 3 -3 4 -12 1 -19z m-2356 -18 c6 0 7 -5 3
-11 -4 -8 -9 -7 -15 2 -6 10 -9 11 -9 2 0 -7 -7 -13 -15 -13 -19 0 -19 6 3 28
12 13 18 14 20 5 2 -7 8 -13 13 -13z m-215 -2 c10 -13 12 -17 4 -11 -10 9 -17
9 -26 2 -14 -11 -34 -4 -34 11 0 5 7 6 17 3 11 -4 14 -3 9 5 -13 21 10 13 30
-10z m157 2 c-6 -24 -16 -25 -32 -6 -9 11 -9 15 1 19 27 11 36 7 31 -13z m94
-2 c-3 -8 -6 -5 -6 6 -1 11 2 17 5 13 3 -3 4 -12 1 -19z m-363 6 c9 -3 16 -11
16 -16 0 -6 -6 -6 -14 1 -11 9 -15 9 -19 -1 -4 -8 -6 -7 -6 5 -1 19 0 20 23
11z m4298 -13 c15 -18 15 -19 -3 -24 -15 -4 -19 0 -19 19 0 29 1 29 22 5z
m139 10 c9 -1 19 -7 22 -14 4 -11 -10 -14 -59 -14 -41 1 -64 5 -64 12 0 19 8
22 48 19 20 -1 44 -2 53 -3z m317 -8 c-3 -16 -15 -18 -92 -18 -48 0 -90 3 -93
8 -11 18 13 24 98 26 82 2 90 0 87 -16z m-2160 0 c-10 -2 -26 -2 -35 0 -10 3
-2 5 17 5 19 0 27 -2 18 -5z m-1408 -73 c0 -16 -4 -30 -10 -30 -5 0 -10 7 -10
16 0 8 -4 12 -10 9 -14 -9 -12 3 3 20 19 22 27 18 27 -15z m50 21 c0 -5 -7
-11 -14 -14 -10 -4 -13 -1 -9 9 6 15 23 19 23 5z m100 -22 c0 -5 -7 -9 -15 -9
-9 0 -15 9 -15 21 0 18 2 19 15 9 8 -7 15 -16 15 -21z m139 14 c1 18 31 25 31
6 0 -5 5 -7 10 -4 6 3 10 -4 9 -17 0 -13 -3 -17 -6 -10 -7 17 -23 15 -23 -3 0
-9 -9 -15 -25 -15 -20 0 -25 5 -25 23 0 31 13 43 21 20 7 -17 8 -17 8 0z
m2010 9 c-1 -18 -18 -46 -18 -33 -1 11 -5 10 -16 -5 -8 -10 -15 -14 -16 -9 -4
29 -3 41 3 45 11 8 48 10 47 2z m44 -33 c-7 -7 -12 -3 -15 16 -5 25 -4 25 10
11 12 -11 13 -19 5 -27z m-2393 5 c0 -14 -4 -23 -10 -19 -5 3 -10 15 -10 26 0
10 5 19 10 19 6 0 10 -12 10 -26z m244 -23 c-9 -11 -21 13 -16 32 6 22 6 22
12 -3 4 -14 6 -27 4 -29z m36 41 c0 -13 -12 -22 -22 -16 -10 6 -1 24 13 24 5
0 9 -4 9 -8z m150 -8 c0 -9 5 -12 13 -8 8 5 8 3 -2 -9 -7 -9 -17 -14 -22 -11
-12 7 -11 44 1 44 6 0 10 -7 10 -16z m1648 -11 c3 -19 -1 -23 -22 -23 -21 0
-26 5 -26 26 0 21 4 25 23 22 14 -2 23 -11 25 -25z m32 8 c0 -11 -4 -23 -10
-26 -6 -4 -10 5 -10 19 0 14 5 26 10 26 6 0 10 -9 10 -19z m39 -23 c1 -5 -3
-8 -9 -8 -5 0 -10 12 -9 28 0 24 1 25 9 7 5 -11 9 -23 9 -27z m295 33 c3 -5
-1 -14 -9 -21 -13 -10 -15 -9 -15 9 0 21 14 28 24 12z m-1466 -68 l-2 -68 -3
63 -4 64 -50 -4 c-27 -1 -49 0 -49 5 0 4 25 7 55 7 l55 0 -2 -67z m473 58 c-7
-5 -11 -13 -7 -19 3 -6 2 -13 -4 -17 -6 -4 -10 5 -10 19 0 18 5 26 18 26 13 0
14 -2 3 -9z m124 -1 c3 -6 -1 -7 -9 -4 -18 7 -21 14 -7 14 6 0 13 -4 16 -10z
m438 -10 c3 -11 1 -20 -4 -20 -5 0 -9 9 -9 20 0 11 2 20 4 20 2 0 6 -9 9 -20z
m-1908 -10 c-4 -7 -22 -7 -45 0 -3 1 4 5 15 9 22 9 38 4 30 -9z m54 6 c11 -14
6 -15 -27 -7 -4 1 8 21 12 21 2 0 9 -6 15 -14z m2028 -8 c-3 -8 -6 -5 -6 6 -1
11 2 17 5 13 3 -3 4 -12 1 -19z m-2217 2 c0 -5 -7 -10 -15 -10 -8 0 -15 5 -15
10 0 6 7 10 15 10 8 0 15 -4 15 -10z m907 -67 c-2 -16 -4 -5 -4 22 0 28 2 40
4 28 2 -13 2 -35 0 -50z m1113 57 c0 -5 -2 -10 -4 -10 -3 0 -8 5 -11 10 -3 6
-1 10 4 10 6 0 11 -4 11 -10z m-818 -12 c-18 -18 -14 -46 8 -60 26 -17 26 -32
0 -18 -31 16 -46 55 -30 75 7 8 17 15 23 15 7 0 7 -4 -1 -12z m356 3 c7 -1 11
-15 11 -38 -2 -35 -2 -35 -6 -8 -6 37 -24 50 -40 28 -12 -15 -13 -15 -13 4 0
15 5 20 18 18 9 -2 23 -4 30 -4z m-590 -8 c-10 -2 -26 -2 -35 0 -10 3 -2 5 17
5 19 0 27 -2 18 -5z m579 -60 c-3 -10 -5 -2 -5 17 0 19 2 27 5 18 2 -10 2 -26
0 -35z m-920 -45 c-2 -13 -4 -3 -4 22 0 25 2 35 4 23 2 -13 2 -33 0 -45z
m3143 58 c0 -2 -7 -7 -16 -10 -8 -3 -12 -2 -9 4 6 10 25 14 25 6z m-1433 -28
c-3 -8 -6 -5 -6 6 -1 11 2 17 5 13 3 -3 4 -12 1 -19z m-1022 2 c-3 -5 -11 -10
-16 -10 -6 0 -7 5 -4 10 3 6 11 10 16 10 6 0 7 -4 4 -10z m2340 -98 c-3 -3
-11 0 -18 7 -9 10 -8 11 6 5 10 -3 15 -9 12 -12z m-3028 -64 c-2 -13 -4 -3 -4
22 0 25 2 35 4 23 2 -13 2 -33 0 -45z m926 25 c-7 -2 -19 -2 -25 0 -7 3 -2 5
12 5 14 0 19 -2 13 -5z m-416 -50 c-3 -10 -5 -4 -5 12 0 17 2 24 5 18 2 -7 2
-21 0 -30z m151 20 c-21 -2 -55 -2 -75 0 -21 2 -4 4 37 4 41 0 58 -2 38 -4z
m153 -51 c-4 -54 -11 -53 -11 3 0 27 3 45 7 41 4 -4 6 -24 4 -44z m-440 29
c17 -1 20 -7 17 -43 -2 -26 -9 -43 -18 -46 -13 -4 -13 -3 -2 10 8 10 10 26 6
42 -5 22 -12 26 -40 26 -19 0 -34 -4 -34 -9 0 -5 -3 -22 -6 -39 -6 -28 -4 -31
22 -35 28 -4 28 -4 -3 -6 -33 -1 -33 -1 -33 47 0 27 2 51 4 53 4 4 29 4 87 0z
m479 -31 c0 -22 -2 -40 -4 -40 -2 0 -6 18 -8 40 -2 22 0 40 4 40 5 0 8 -18 8
-40z m80 -7 c0 -59 -8 -73 -35 -62 -19 7 -19 8 3 8 19 1 22 6 22 46 0 38 -3
45 -19 45 -16 0 -20 -8 -23 -42 l-3 -43 -5 48 -5 47 32 0 c33 0 33 -1 33 -47z
m-1603 5 c-3 -8 -6 -5 -6 6 -1 11 2 17 5 13 3 -3 4 -12 1 -19z m-1007 8 c0 -3
-4 -8 -10 -11 -5 -3 -10 -1 -10 4 0 6 5 11 10 11 6 0 10 -2 10 -4z m2318 -3
c-21 -2 -57 -2 -80 0 -24 2 -7 4 37 4 44 0 63 -2 43 -4z m-41 -33 c54 0 74 -3
67 -10 -6 -6 -43 -10 -85 -8 -71 3 -74 4 -77 28 -2 22 -1 23 8 8 9 -15 25 -18
87 -18z m970 -17 c-3 -10 -5 -4 -5 12 0 17 2 24 5 18 2 -7 2 -21 0 -30z m1049
1 c8 3 14 1 14 -4 0 -6 -11 -10 -25 -10 -18 0 -25 5 -25 18 0 28 15 37 18 12
2 -14 9 -20 18 -16z m81 -6 c-3 -7 -5 -2 -5 12 0 14 2 19 5 13 2 -7 2 -19 0
-25z m273 16 c0 -8 -4 -12 -10 -9 -5 3 -10 10 -10 16 0 5 5 9 10 9 6 0 10 -7
10 -16z m118 1 c2 -2 2 -11 -2 -20 -4 -12 -10 -14 -25 -5 -11 6 -24 10 -28 9
-19 -3 -31 2 -36 15 -5 12 3 14 40 10 26 -2 48 -6 51 -9z m-178 -5 c0 -5 -5
-10 -11 -10 -5 0 -7 5 -4 10 3 6 8 10 11 10 2 0 4 -4 4 -10z m-2052 -27 c-10
-2 -26 -2 -35 0 -10 3 -2 5 17 5 19 0 27 -2 18 -5z m1692 -53 c0 -5 -5 -10
-11 -10 -5 0 -7 5 -4 10 3 6 8 10 11 10 2 0 4 -4 4 -10z m30 -10 c0 -11 -4
-20 -9 -20 -5 0 -7 9 -4 20 3 11 7 20 9 20 2 0 4 -9 4 -20z m69 -2 c-1 -18 -2
-19 -6 -5 -5 20 -40 19 -35 -1 1 -7 -2 -12 -8 -12 -5 0 -10 9 -10 20 0 16 7
20 30 20 25 0 30 -4 29 -22z m48 -10 c-3 -7 -5 -2 -5 12 0 14 2 19 5 13 2 -7
2 -19 0 -25z m53 12 c0 -13 -7 -20 -20 -20 -13 0 -20 7 -20 20 0 13 7 20 20
20 13 0 20 -7 20 -20z m17 -12 c-3 -7 -5 -2 -5 12 0 14 2 19 5 13 2 -7 2 -19
0 -25z m43 12 c0 -11 -4 -20 -10 -20 -5 0 -10 9 -10 20 0 11 5 20 10 20 6 0
10 -9 10 -20z m140 0 c0 -11 -5 -20 -11 -20 -5 0 -8 4 -4 9 3 5 1 12 -4 15 -5
3 -11 -1 -15 -9 -3 -8 -17 -15 -31 -15 -18 0 -25 5 -25 20 0 17 7 20 45 20 38
0 45 -3 45 -20z m40 -6 c0 -14 -4 -23 -10 -19 -5 3 -10 15 -10 26 0 10 5 19
10 19 6 0 10 -12 10 -26z m27 -16 c-3 -7 -5 -2 -5 12 0 14 2 19 5 13 2 -7 2
-19 0 -25z m47 -3 c-4 -8 -8 -15 -10 -15 -2 0 -4 7 -4 15 0 8 4 15 10 15 5 0
7 -7 4 -15z m-2486 -92 c-10 -2 -28 -2 -40 0 -13 2 -5 4 17 4 22 1 32 -1 23
-4z m79 -40 c-3 -10 -5 -2 -5 17 0 19 2 27 5 18 2 -10 2 -26 0 -35z m-90 -15
c-3 -7 -5 -2 -5 12 0 14 2 19 5 13 2 -7 2 -19 0 -25z m-712 2 c3 -6 -1 -7 -9
-4 -18 7 -21 14 -7 14 6 0 13 -4 16 -10z m-8 -66 c-3 -3 -12 -4 -19 -1 -8 3
-5 6 6 6 11 1 17 -2 13 -5z m244 -161 c13 -16 12 -17 -3 -4 -17 13 -22 21 -14
21 2 0 10 -8 17 -17z m-970 -166 c-14 -14 -15 -41 -1 -32 6 4 9 -5 8 -19 -5
-54 -48 -30 -48 27 0 29 3 32 31 34 17 2 19 -1 10 -10z m49 -7 c0 -11 -6 -20
-13 -20 -19 0 -27 10 -20 26 8 21 33 17 33 -6z m-3 -45 c0 -8 -4 -15 -9 -15
-4 0 -8 7 -8 15 0 8 4 15 8 15 5 0 9 -7 9 -15z m-589 -2 c-16 -2 -40 -2 -55 0
-16 2 -3 4 27 4 30 0 43 -2 28 -4z m1893 -71 c-7 -2 -18 1 -23 6 -8 8 -4 9 13
5 13 -4 18 -8 10 -11z m46 -8 c-3 -3 -12 -4 -19 -1 -8 3 -5 6 6 6 11 1 17 -2
13 -5z m96 -61 c-7 -2 -21 -2 -30 0 -10 3 -4 5 12 5 17 0 24 -2 18 -5z m-156
-29 c-7 -7 -37 7 -37 17 0 6 9 5 21 -1 11 -7 19 -14 16 -16z m113 -34 c20 -6
21 -8 5 -8 -11 0 -29 3 -40 8 -25 11 1 11 35 0z m180 -4 c0 -2 -8 -10 -17 -17
-16 -13 -17 -12 -4 4 13 16 21 21 21 13z m-203 -52 c-3 -3 -12 -4 -19 -1 -8 3
-5 6 6 6 11 1 17 -2 13 -5z m10 -51 c-3 -10 -5 -4 -5 12 0 17 2 24 5 18 2 -7
2 -21 0 -30z m-2357 -7 c0 -2 -9 -6 -20 -9 -11 -3 -18 -1 -14 4 5 9 34 13 34
5z m2407 -58 c-3 -7 -5 -2 -5 12 0 14 2 19 5 13 2 -7 2 -19 0 -25z m1833 22
c0 -5 -2 -10 -4 -10 -3 0 -8 5 -11 10 -3 6 -1 10 4 10 6 0 11 -4 11 -10z"/>
<path d="M3011 2634 c0 -11 3 -14 6 -6 3 7 2 16 -1 19 -3 4 -6 -2 -5 -13z"/>
<path d="M2971 2614 c0 -11 3 -14 6 -6 3 7 2 16 -1 19 -3 4 -6 -2 -5 -13z"/>
<path d="M4538 2803 c6 -2 18 -2 25 0 6 3 1 5 -13 5 -14 0 -19 -2 -12 -5z"/>
<path d="M3370 1541 c0 -6 4 -13 10 -16 6 -3 7 1 4 9 -7 18 -14 21 -14 7z"/>
<path d="M4815 1070 c-3 -5 -1 -10 4 -10 6 0 11 5 11 10 0 6 -2 10 -4 10 -3 0
-8 -4 -11 -10z"/>
</g>
</svg>
